<svg id="visual" viewBox="0 0 900 600" width="900" height="600" xmlns="http://www.w3.org/2000/svg" xmlns:xlink="http://www.w3.org/1999/xlink" version="1.1"><g stroke-width="1" stroke-linejoin="bevel"><path d="M492 288L501 205L414 189Z" fill="#246688" stroke="#246688"></path><path d="M414 189L385 300L492 288Z" fill="#112e42" stroke="#112e42"></path><path d="M598 287L593 194L501 205Z" fill="#205a7a" stroke="#205a7a"></path><path d="M501 205L498 96L414 189Z" fill="#19435d" stroke="#19435d"></path><path d="M593 194L498 96L501 205Z" fill="#1d4e6b" stroke="#1d4e6b"></path><path d="M511 408L598 287L492 288Z" fill="#277297" stroke="#277297"></path><path d="M492 288L598 287L501 205Z" fill="#081a28" stroke="#081a28"></path><path d="M498 96L394 91L414 189Z" fill="#00101c" stroke="#00101c"></path><path d="M287 205L296 289L385 300Z" fill="#19435d" stroke="#19435d"></path><path d="M287 205L385 300L414 189Z" fill="#297ea6" stroke="#297ea6"></path><path d="M298 111L287 205L414 189Z" fill="#246688" stroke="#246688"></path><path d="M386 415L511 408L385 300Z" fill="#1d4e6b" stroke="#1d4e6b"></path><path d="M385 300L511 408L492 288Z" fill="#15384f" stroke="#15384f"></path><path d="M297 388L386 415L385 300Z" fill="#19435d" stroke="#19435d"></path><path d="M394 91L298 111L414 189Z" fill="#00101c" stroke="#00101c"></path><path d="M296 289L297 388L385 300Z" fill="#00101c" stroke="#00101c"></path><path d="M190 293L297 388L296 289Z" fill="#0c2435" stroke="#0c2435"></path><path d="M698 203L606 96L593 194Z" fill="#15384f" stroke="#15384f"></path><path d="M593 194L606 96L498 96Z" fill="#277297" stroke="#277297"></path><path d="M498 96L488 0L394 91Z" fill="#15384f" stroke="#15384f"></path><path d="M511 408L594 399L598 287Z" fill="#112e42" stroke="#112e42"></path><path d="M598 287L698 203L593 194Z" fill="#277297" stroke="#277297"></path><path d="M598 0L488 0L498 96Z" fill="#1d4e6b" stroke="#1d4e6b"></path><path d="M394 91L311 0L298 111Z" fill="#1d4e6b" stroke="#1d4e6b"></path><path d="M488 0L399 0L394 91Z" fill="#1d4e6b" stroke="#1d4e6b"></path><path d="M594 399L688 309L598 287Z" fill="#112e42" stroke="#112e42"></path><path d="M386 415L485 489L511 408Z" fill="#0c2435" stroke="#0c2435"></path><path d="M511 408L596 513L594 399Z" fill="#15384f" stroke="#15384f"></path><path d="M386 510L485 489L386 415Z" fill="#0c2435" stroke="#0c2435"></path><path d="M688 309L698 203L598 287Z" fill="#246688" stroke="#246688"></path><path d="M189 189L190 293L287 205Z" fill="#081a28" stroke="#081a28"></path><path d="M287 205L190 293L296 289Z" fill="#19435d" stroke="#19435d"></path><path d="M184 96L189 189L298 111Z" fill="#0c2435" stroke="#0c2435"></path><path d="M298 111L189 189L287 205Z" fill="#00101c" stroke="#00101c"></path><path d="M291 510L386 415L297 388Z" fill="#246688" stroke="#246688"></path><path d="M291 510L386 510L386 415Z" fill="#00101c" stroke="#00101c"></path><path d="M399 0L311 0L394 91Z" fill="#0c2435" stroke="#0c2435"></path><path d="M715 0L598 0L606 96Z" fill="#297ea6" stroke="#297ea6"></path><path d="M606 96L598 0L498 96Z" fill="#112e42" stroke="#112e42"></path><path d="M698 203L715 102L606 96Z" fill="#19435d" stroke="#19435d"></path><path d="M797 204L715 102L698 203Z" fill="#112e42" stroke="#112e42"></path><path d="M713 495L711 392L594 399Z" fill="#00101c" stroke="#00101c"></path><path d="M594 399L711 392L688 309Z" fill="#112e42" stroke="#112e42"></path><path d="M810 288L797 204L698 203Z" fill="#297ea6" stroke="#297ea6"></path><path d="M195 0L184 96L298 111Z" fill="#112e42" stroke="#112e42"></path><path d="M84 212L115 315L190 293Z" fill="#277297" stroke="#277297"></path><path d="M485 489L596 513L511 408Z" fill="#19435d" stroke="#19435d"></path><path d="M499 600L596 513L485 489Z" fill="#297ea6" stroke="#297ea6"></path><path d="M115 315L193 414L190 293Z" fill="#00101c" stroke="#00101c"></path><path d="M190 293L193 414L297 388Z" fill="#246688" stroke="#246688"></path><path d="M211 484L291 510L297 388Z" fill="#0c2435" stroke="#0c2435"></path><path d="M386 510L406 600L485 489Z" fill="#297ea6" stroke="#297ea6"></path><path d="M193 414L211 484L297 388Z" fill="#246688" stroke="#246688"></path><path d="M84 212L190 293L189 189Z" fill="#112e42" stroke="#112e42"></path><path d="M193 414L114 506L211 484Z" fill="#081a28" stroke="#081a28"></path><path d="M810 288L698 203L688 309Z" fill="#277297" stroke="#277297"></path><path d="M311 0L195 0L298 111Z" fill="#205a7a" stroke="#205a7a"></path><path d="M88 113L84 212L189 189Z" fill="#246688" stroke="#246688"></path><path d="M785 95L715 0L715 102Z" fill="#1d4e6b" stroke="#1d4e6b"></path><path d="M715 102L715 0L606 96Z" fill="#15384f" stroke="#15384f"></path><path d="M313 600L386 510L291 510Z" fill="#246688" stroke="#246688"></path><path d="M313 600L406 600L386 510Z" fill="#1d4e6b" stroke="#1d4e6b"></path><path d="M406 600L499 600L485 489Z" fill="#15384f" stroke="#15384f"></path><path d="M711 392L810 288L688 309Z" fill="#277297" stroke="#277297"></path><path d="M805 402L810 288L711 392Z" fill="#0c2435" stroke="#0c2435"></path><path d="M693 600L713 495L596 513Z" fill="#0c2435" stroke="#0c2435"></path><path d="M596 513L713 495L594 399Z" fill="#205a7a" stroke="#205a7a"></path><path d="M797 204L785 95L715 102Z" fill="#112e42" stroke="#112e42"></path><path d="M792 0L785 95L900 100Z" fill="#1d4e6b" stroke="#1d4e6b"></path><path d="M88 113L189 189L184 96Z" fill="#19435d" stroke="#19435d"></path><path d="M0 314L113 396L115 315Z" fill="#19435d" stroke="#19435d"></path><path d="M115 315L113 396L193 414Z" fill="#205a7a" stroke="#205a7a"></path><path d="M100 0L88 113L184 96Z" fill="#19435d" stroke="#19435d"></path><path d="M201 600L291 510L211 484Z" fill="#081a28" stroke="#081a28"></path><path d="M201 600L313 600L291 510Z" fill="#277297" stroke="#277297"></path><path d="M713 495L805 402L711 392Z" fill="#297ea6" stroke="#297ea6"></path><path d="M499 600L606 600L596 513Z" fill="#277297" stroke="#277297"></path><path d="M900 185L785 95L797 204Z" fill="#00101c" stroke="#00101c"></path><path d="M785 95L792 0L715 0Z" fill="#15384f" stroke="#15384f"></path><path d="M195 0L100 0L184 96Z" fill="#081a28" stroke="#081a28"></path><path d="M0 407L114 506L113 396Z" fill="#112e42" stroke="#112e42"></path><path d="M113 396L114 506L193 414Z" fill="#277297" stroke="#277297"></path><path d="M796 600L794 498L713 495Z" fill="#297ea6" stroke="#297ea6"></path><path d="M713 495L794 498L805 402Z" fill="#081a28" stroke="#081a28"></path><path d="M606 600L693 600L596 513Z" fill="#081a28" stroke="#081a28"></path><path d="M114 506L201 600L211 484Z" fill="#1d4e6b" stroke="#1d4e6b"></path><path d="M88 113L0 212L84 212Z" fill="#205a7a" stroke="#205a7a"></path><path d="M84 212L0 314L115 315Z" fill="#297ea6" stroke="#297ea6"></path><path d="M0 107L0 212L88 113Z" fill="#0c2435" stroke="#0c2435"></path><path d="M900 300L900 185L810 288Z" fill="#081a28" stroke="#081a28"></path><path d="M810 288L900 185L797 204Z" fill="#277297" stroke="#277297"></path><path d="M900 300L810 288L805 402Z" fill="#246688" stroke="#246688"></path><path d="M900 403L900 300L805 402Z" fill="#246688" stroke="#246688"></path><path d="M0 212L0 314L84 212Z" fill="#1d4e6b" stroke="#1d4e6b"></path><path d="M0 0L0 107L88 113Z" fill="#0c2435" stroke="#0c2435"></path><path d="M900 185L900 100L785 95Z" fill="#277297" stroke="#277297"></path><path d="M900 487L805 402L794 498Z" fill="#297ea6" stroke="#297ea6"></path><path d="M900 487L900 403L805 402Z" fill="#277297" stroke="#277297"></path><path d="M0 314L0 407L113 396Z" fill="#112e42" stroke="#112e42"></path><path d="M114 506L86 600L201 600Z" fill="#205a7a" stroke="#205a7a"></path><path d="M693 600L796 600L713 495Z" fill="#277297" stroke="#277297"></path><path d="M100 0L0 0L88 113Z" fill="#0c2435" stroke="#0c2435"></path><path d="M0 512L86 600L114 506Z" fill="#0c2435" stroke="#0c2435"></path><path d="M900 100L900 0L792 0Z" fill="#081a28" stroke="#081a28"></path><path d="M900 600L900 487L794 498Z" fill="#297ea6" stroke="#297ea6"></path><path d="M0 407L0 512L114 506Z" fill="#277297" stroke="#277297"></path><path d="M0 512L0 600L86 600Z" fill="#081a28" stroke="#081a28"></path><path d="M796 600L900 600L794 498Z" fill="#00101c" stroke="#00101c"></path></g></svg>